<svg xmlns="http://www.w3.org/2000/svg" version="1.1" xmlns:xlink="http://www.w3.org/1999/xlink" xmlns:svgjs="http://svgjs.com/svgjs" width="2560" height="1440" preserveAspectRatio="none" viewBox="0 0 2560 1440"><g mask="url(&quot;#SvgjsMask1022&quot;)" fill="none"><rect width="2560" height="1440" x="0" y="0" fill="rgba(22, 25, 37, 1)"></rect><path d="M512.86 1648.4C758.08 1621.67 906.84 1087.92 1323.13 1085.33 1739.42 1082.74 1728.27 1265.33 2133.4 1265.33 2538.53 1265.33 2736.17 1086.41 2943.67 1085.33" stroke="rgba(155, 182, 191, 1)" stroke-width="2"></path><path d="M1392.47 1531.64C1582.45 1465.45 1402.4 992.14 1895.79 903.74 2389.18 815.34 2598.85 244.74 2902.42 212.54" stroke="rgba(155, 182, 191, 1)" stroke-width="2"></path><path d="M1049.84 1632.31C1323.26 1577.88 1365.69 939.1 1870.39 877.19 2375.09 815.28 2457.84 444.93 2690.94 430.79" stroke="rgba(155, 182, 191, 1)" stroke-width="2"></path><path d="M862.8 1724.81C1251.49 1620.29 1379.71 555.36 1958.46 545.16 2537.21 534.96 2759.78 969.45 3054.12 977.16" stroke="rgba(155, 182, 191, 1)" stroke-width="2"></path><path d="M1042.59 1635.21C1354.76 1510.28 1429.68 555.3 1840.42 552.45 2251.17 549.6 2378.36 1197.88 2638.26 1243.65" stroke="rgba(155, 182, 191, 1)" stroke-width="2"></path></g><defs><mask id="SvgjsMask1022"><rect width="2560" height="1440" fill="#ffffff"></rect></mask></defs></svg>