<svg xmlns="http://www.w3.org/2000/svg" version="1.1" xmlns:xlink="http://www.w3.org/1999/xlink" xmlns:svgjs="http://svgjs.com/svgjs" width="1920" height="1080" preserveAspectRatio="none" viewBox="0 0 1920 1080"><g mask="url(&quot;#SvgjsMask1042&quot;)" fill="none"><rect width="1920" height="1080" x="0" y="0" fill="rgba(22, 25, 37, 1)"></rect><path d="M0,716.214C131.987,723.234,228.65,600.046,342.754,533.336C462.822,463.14,617.318,434.009,687.792,314.104C759.882,191.449,740.82,37.169,716.795,-103.06C693.248,-240.5,626.973,-360.745,552.028,-478.335C465.42,-614.225,404.087,-805.49,246.794,-840.502C87.972,-875.854,-35.886,-698.645,-188.876,-643.252C-328.831,-592.579,-518.353,-645.959,-611.396,-529.778C-704.857,-413.075,-607.448,-238.366,-631.326,-90.771C-655.84,60.755,-824.441,208.047,-752.715,343.754C-679.692,481.915,-460.159,428.774,-320.096,498.08C-201.978,556.528,-131.602,709.214,0,716.214" fill="#12141e"></path><path d="M1920 1784.908C2054.214 1803.1390000000001 2190.646 1751.596 2302.8450000000003 1675.719 2413.572 1600.837 2513.032 1494.594 2542.181 1364.1399999999999 2569.753 1240.747 2487.233 1125.091 2453.082 1003.354 2423.986 899.638 2408.4 796.197 2356.392 701.864 2293.287 587.403 2243.483 441.73900000000003 2119.935 399.08399999999995 1996.436 356.446 1865.179 435.384 1747.214 491.547 1643.632 540.862 1561.871 617.975 1483.737 701.976 1402.8780000000002 788.906 1315.491 873.985 1284.807 988.673 1252.129 1110.812 1248.53 1247.9 1307.796 1359.584 1365.999 1469.266 1496.657 1509.216 1598.6309999999999 1580.061 1705.116 1654.04 1791.519 1767.4560000000001 1920 1784.908" fill="#1a1e2c"></path></g><defs><mask id="SvgjsMask1042"><rect width="1920" height="1080" fill="#ffffff"></rect></mask></defs></svg>